<?xml version="1.0" standalone="no"?>
<!DOCTYPE svg PUBLIC "-//W3C//DTD SVG 20010904//EN"
 "http://www.w3.org/TR/2001/REC-SVG-20010904/DTD/svg10.dtd">
<svg version="1.0" xmlns="http://www.w3.org/2000/svg"
 width="600.000000pt" height="600.000000pt" viewBox="0 0 600.000000 600.000000"
 preserveAspectRatio="xMidYMid meet">
<metadata>
Created by potrace 1.11, written by Peter Selinger 2001-2013
</metadata>
<g transform="translate(0.000000,600.000000) scale(0.100000,-0.100000)"
fill="#000000" stroke="none">
<path d="M4450 4179 c-149 -26 -313 -107 -445 -219 l-70 -59 -3 124 -3 125
-324 0 -325 0 0 -1160 0 -1160 325 0 325 0 0 693 c0 756 1 770 58 891 85 180
304 292 500 257 171 -30 267 -147 302 -366 6 -34 10 -359 10 -762 l0 -703 320
0 320 0 0 748 c0 418 -5 780 -10 821 -21 162 -73 303 -158 428 -100 148 -286
279 -459 324 -90 24 -280 33 -363 18z"/>
<path d="M1472 4165 c-366 -66 -683 -301 -837 -620 -118 -246 -148 -598 -75
-904 63 -262 216 -478 448 -631 215 -143 429 -202 727 -202 238 1 427 44 605
138 98 52 221 139 273 192 l36 37 -165 185 c-91 102 -172 191 -179 199 -12 12
-23 5 -77 -43 -68 -63 -184 -124 -283 -151 -96 -26 -258 -31 -349 -11 -115 26
-240 93 -309 165 -55 57 -107 149 -121 214 l-6 27 836 0 836 0 -5 283 c-5 310
-13 369 -77 518 -132 312 -440 538 -824 604 -108 18 -351 19 -454 0z m381
-532 c156 -42 302 -203 323 -356 l7 -47 -502 0 c-405 0 -501 2 -501 13 0 7 9
41 21 75 39 115 128 212 254 274 133 67 255 79 398 41z"/>
</g>
</svg>
