<?xml version="1.0" encoding="utf-8"?>
<!-- Generator: Adobe Illustrator 18.1.1, SVG Export Plug-In . SVG Version: 6.00 Build 0)  -->
<svg version="1.1" id="Capa_1" xmlns="http://www.w3.org/2000/svg" xmlns:xlink="http://www.w3.org/1999/xlink" x="0px" y="0px"
	 viewBox="18.2 232.3 805.5 130.7" enable-background="new 18.2 232.3 805.5 130.7" xml:space="preserve">
<path fill="none" stroke="#E53935" stroke-width="4" stroke-linecap="round" stroke-miterlimit="10" d="M-2112.9,5995.3
	c-26.2-37.6-41.4-83.1-41.4-132.4c0-127.9,103.6-231.8,231.8-231.8c127.9,0,231.8,103.6,231.8,231.8c0,120.3-92.2,219.3-209.8,230.7
	c-7.6,0.4-14.4,1.1-22,1.1c-156.3-4.9-69.8-135.1-69.8-135.1l12.5,7.6l111.2-137c18.6,0.4,37.6-8,50.1-24.7
	c18.6-26.9,12.5-63.4-14-82c-26.9-18.6-63.4-12.5-82,14c-11.8,16.7-13.3,37.2-6.8,54.6l-93,154.4l9.1,5.3"/>
<g>
	<g>
		<path fill="#E43935" d="M657.5,293.3c1.1-0.8,1.9-1.9,1.9-3.8c0-1.9-0.8-3-1.9-3.8c-1.1-0.8-3-0.8-6.1-0.8h-4.6v9.1h4.6
			C654.1,294,656,293.7,657.5,293.3z"/>
		<path fill="#E43935" d="M659,302.8c-1.5-0.8-3.8-1.1-7.2-1.1h-5.7v10.2h0.8h6.4c2.7,0,4.9-0.4,6.1-1.1c1.5-0.8,1.9-1.9,1.9-4.2
			C661.3,304.7,660.5,303.1,659,302.8z"/>
		<path fill="#E43935" d="M816.8,272.8c-4.6-7.2-10.6-13.3-18.6-17.5c-7.6-4.2-16.3-6.4-26.2-6.4H637.4v0.4
			c-9.5,0-18.2,2.3-26.2,6.4c-8,4.2-14,9.9-18.6,17.5c-4.6,7.2-6.8,15.9-6.8,25c0,9.1,2.3,17.5,6.8,25c4.6,7.2,10.6,13.3,18.6,17.5
			c7.6,4.2,16.3,6.4,26.2,6.4h134.7v-0.4c9.5,0,18.2-2.3,26.2-6.4c8-4.2,14-9.9,18.6-17.5c4.6-7.2,6.8-15.9,6.8-25
			C823.7,288.7,821.4,280.4,816.8,272.8z M668.5,316.4c-2.3,2.3-6.4,3.4-12.5,3.4h-19v-43.3h16.7c3,0,5.3,0.4,7.6,1.1s3.8,1.5,4.9,3
			c1.9,2.3,3,4.9,3,7.6c0,3.4-1.1,6.1-3.4,7.6c-0.8,0.8-1.1,0.8-1.5,1.1c-0.4,0-0.8,0.4-1.5,0.8c2.7,0.8,4.9,1.9,6.4,3.8
			c1.5,1.9,2.3,4.2,2.3,6.8C671.5,311.5,670.4,314.1,668.5,316.4z M694.7,307.7c2.3,2.3,5.3,3.8,8.7,3.8c4.9,0,8.7-1.9,11.8-5.7
			l6.1,6.4c-4.9,5.7-10.6,8.3-17.5,8.3s-12.1-2.3-16.3-6.4c-4.2-4.2-6.4-9.5-6.4-15.9c0-6.4,2.3-11.8,6.4-15.9
			c4.6-4.2,9.9-6.4,16.3-6.4c7.2,0,12.9,2.7,17.8,8l-6.1,6.8c-3-3.8-6.8-5.7-11.4-5.7c-3.8,0-6.8,1.1-9.5,3.4
			c-2.7,2.3-3.8,5.7-3.8,9.5C690.9,302,692,305,694.7,307.7z M772.5,319.8H763l-20.5-27.3v27.3H733v-43.3h9.1l21.2,27.7v-27.7h9.1
			V319.8z"/>
	</g>
	<g>
		<path fill="#E43935" d="M101.7,330.1c-10.2,9.9-22,14.4-36,14.4c-13.7,0-25-4.2-34.1-12.5s-13.3-19.7-13.3-34.1
			s4.6-25.4,13.7-34.1c9.1-8.3,20.1-12.5,32.2-12.5S87.3,255,96,262.5c8.7,7.6,12.9,17.8,12.9,31.1v13.3H43.3
			c0.8,4.9,3.4,9.1,7.6,12.1c4.6,3,9.5,4.6,14.8,4.6c8.7,0,16.3-3,22-9.1L101.7,330.1z M77.4,276.6c-3.4-3-7.6-4.6-12.5-4.6
			c-4.9,0-9.5,1.5-13.7,4.6c-4.2,3-6.4,7.2-7.2,12.1h39.5C83.1,283.4,80.8,279.6,77.4,276.6z"/>
		<path fill="#E43935" d="M151.8,292.9v50.5h-25.4v-90.7h25.4v10.2c7.6-7.6,16.3-11.8,25.8-11.8s17.5,3.4,23.9,10.2
			c6.4,6.8,9.5,15.6,9.5,26.9v55h-25v-51.2c0-14-4.9-20.9-15.2-20.9c-4.9,0-9.5,1.9-13.3,5.3C153.7,280.4,151.8,285.7,151.8,292.9z"
			/>
		<path fill="#E43935" d="M252.3,343.4l-35.7-90.7h26.2l22.4,56.9l22.4-56.9h26.2l-35.7,90.7C278.1,343.4,252.3,343.4,252.3,343.4z"
			/>
		<path fill="#E43935" d="M350.9,343.4h-25.4v-90.7h25.4V343.4z"/>
		<path fill="#E43935" d="M398.4,343.4l-35.7-90.7h26.2l22.4,56.9l22.4-56.9h26.2l-35.7,90.7C424.2,343.4,398.4,343.4,398.4,343.4z"
			/>
		<path fill="#E43935" d="M560.4,298.2c0,13.3-4.6,24.3-13.7,33c-9.1,9.1-20.5,13.3-34.1,13.3s-25-4.6-34.1-13.3
			c-9.1-9.1-13.7-20.1-13.7-33s4.6-24.3,13.7-33.4c9.1-9.1,20.5-13.7,34.1-13.7s25,4.6,34.1,13.7
			C555.8,273.9,560.4,284.9,560.4,298.2z M490.2,298.2c0,7.6,2.3,13.3,6.4,18.2c4.2,4.6,9.5,6.8,16.3,6.8c6.4,0,11.8-2.3,16.3-6.8
			c4.2-4.6,6.4-10.6,6.4-18.2s-2.3-13.3-6.4-18.2c-4.2-4.6-9.5-7.2-16.3-7.2c-6.4,0-11.8,2.3-16.3,7.2
			C492.1,284.6,490.2,290.6,490.2,298.2z"/>
	</g>
</g>
</svg>
