<?xml version="1.0" encoding="utf-8"?>
<!-- Generator: Adobe Illustrator 18.1.1, SVG Export Plug-In . SVG Version: 6.00 Build 0)  -->
<svg version="1.1" id="Capa_1" xmlns="http://www.w3.org/2000/svg" xmlns:xlink="http://www.w3.org/1999/xlink" x="0px" y="0px"
	 viewBox="10 1492.5 1200 160.5" enable-background="new 10 1492.5 1200 160.5" xml:space="preserve">
<g>
	<g>
		<g>
			<path d="M138.6,1617.2c-15.1,14.7-32.6,21.4-53.3,21.4c-20.3,0-37.1-6.3-50.5-18.5c-13.4-12.2-19.7-29.2-19.7-50.5
				c0-21.4,6.9-37.6,20.3-50.5c13.5-12.3,29.8-18.5,47.7-18.5s34.2,5.5,47.1,16.6c12.9,11.2,19.1,26.3,19.1,46v19.7H52.2
				c1.2,7.3,5.1,13.5,11.2,17.9c6.9,4.5,14.1,6.9,22,6.9c12.9,0,24.1-4.5,32.6-13.5L138.6,1617.2z M102.7,1538
				c-5.1-4.5-11.2-6.9-18.5-6.9s-14.1,2.2-20.3,6.9c-6.3,4.6-9.4,10.6-10.6,17.9h58.5C111.1,1548,107.6,1542.4,102.7,1538z"/>
			<path d="M212.8,1562.1v74.8h-37.6v-134.4h37.6v15.1c11.2-11.2,24.1-17.5,38.2-17.5c14.1,0,25.9,5.1,35.4,15.1
				c9.4,10,14.1,23.1,14.1,39.9v81.5h-37.1v-75.8c0-20.8-7.3-30.9-22.5-30.9c-7.3,0-14.1,2.8-19.7,7.9
				C215.7,1543.6,212.8,1551.5,212.8,1562.1z"/>
			<path d="M361.7,1636.8l-52.9-134.4h38.8l33.2,84.3l33.2-84.3h38.8l-52.9,134.4H361.7z"/>
			<path d="M507.6,1636.8h-37.6v-134.3h37.6V1636.8z"/>
			<path d="M578,1636.8l-52.9-134.4h38.8l33.2,84.3l33.2-84.3H669l-52.9,134.4C616.2,1636.8,578,1636.8,578,1636.8z"/>
			<path d="M817.9,1570c0,19.7-6.9,36-20.3,48.9c-13.5,13.5-30.3,19.7-50.5,19.7s-37.1-6.9-50.5-19.7
				c-13.5-13.5-20.3-29.8-20.3-48.9s6.9-36,20.3-49.5s30.3-20.3,50.5-20.3s37.1,6.9,50.5,20.3C811,1533.9,817.9,1550.3,817.9,1570z
				 M714,1570c0,11.2,3.4,19.7,9.4,26.9c6.3,6.9,14.1,10,24.1,10c9.4,0,17.5-3.4,24.1-10c6.3-6.9,9.4-15.7,9.4-26.9
				s-3.4-19.7-9.4-26.9c-6.3-6.9-14.1-10.6-24.1-10.6c-9.4,0-17.5,3.4-24.1,10.6C716.7,1549.8,714,1558.7,714,1570z"/>
		</g>
	</g>
	<g>
		<path d="M963.9,1576.7c-2.2-1.2-5.7-1.6-10.6-1.6h-8.4v15.1h1.2l0,0h9.4c4,0,7.3-0.6,9-1.6c2.2-1.2,2.8-2.8,2.8-6.3
			C967.4,1579.6,966.2,1577.3,963.9,1576.7z"/>
		<path d="M1131.3,1496.5H931.9c-40.5,0-73.4,33-73.4,73.4c0,40.5,33,73.4,73.4,73.4h199.5c40.5,0,73.4-33,73.4-73.4
			C1204.9,1529.4,1171.9,1496.5,1131.3,1496.5z M978,1596.8c-3.4,3.6-9.4,5.2-18.5,5.2h-28.1v-64.1h24.7c4.5,0,7.9,0.6,11.2,1.6
			c3.4,1.2,5.7,2.2,7.3,4.5c2.8,3.4,4.5,7.3,4.5,11.2c0,5.1-1.6,9-5.1,11.2c-1.2,1.2-1.6,1.2-2.2,1.6c-0.6,0-1.2,0.6-2.2,1.2
			c4,1.2,7.3,2.8,9.4,5.7c2.2,2.8,3.4,6.3,3.4,10C982.5,1589.3,980.8,1593.3,978,1596.8z M1016.7,1584.2c3.6,3.3,8,5.5,13,5.5
			c7.3,0,12.9-2.8,17.5-8.4l9,9.4c-7.3,8.4-15.7,12.3-25.9,12.3c-10.2,0-17.9-3.4-24.1-9.4c-6.3-6.3-9.4-14.1-9.4-23.6
			s3.4-17.5,9.4-23.6c6.9-6.3,14.7-9.4,24.1-9.4c10.6,0,19.1,4,26.3,11.8l-9,10c-4.5-5.7-10-8.4-16.9-8.4c-5.7,0-10,1.6-14.1,5.1
			s-5.7,8.4-5.7,14.1C1011,1575.7,1012.6,1580.2,1016.7,1584.2z M1132,1602h-14.1l-30.3-40.4v40.4h-14.1V1538h13.5l31.4,41v-41h13.6
			V1602z"/>
		<path d="M961.8,1562.5c1.6-1.2,2.8-2.8,2.8-5.7c0-2.9-1.2-4.5-2.8-5.7c-1.6-1.2-4.5-1.2-9-1.2H946v13.6h6.9
			C956.8,1563.7,959.6,1563.1,961.8,1562.5z"/>
	</g>
</g>
</svg>
