<?xml version="1.0" encoding="utf-8"?>
<!-- Generator: Adobe Illustrator 18.1.1, SVG Export Plug-In . SVG Version: 6.00 Build 0)  -->
<svg version="1.1" id="Capa_1" xmlns="http://www.w3.org/2000/svg" xmlns:xlink="http://www.w3.org/1999/xlink" x="0px" y="0px"
	 viewBox="0 0 56.2 12.2" enable-background="new 0 0 56.2 12.2" xml:space="preserve">
<g>
	<path d="M1.8,10.4V1.7h4V3H3.2v2.2h1.9v1.3H3.2v2.5h2.7v1.3H1.8z"/>
	<path d="M7.1,10.4V1.7h1.4l1.8,5h0v-5h1.3v8.7h-1.3L8.5,5h0v5.4H7.1z"/>
	<path d="M16.1,1.7h1.5l-1.8,8.7h-1.5l-1.8-8.7h1.5l1.1,6h0L16.1,1.7z"/>
	<path d="M18.6,10.4V1.7h1.5v8.7H18.6z"/>
	<path d="M24.8,1.7h1.5l-1.8,8.7H23l-1.8-8.7h1.5l1.1,6h0L24.8,1.7z"/>
	<g>
		<path d="M31.7,10.8c-2.7,0-4.7-2-4.7-4.7c0-2.7,2.1-4.8,4.7-4.8c2.7,0,4.7,2,4.7,4.7C36.4,8.7,34.4,10.8,31.7,10.8z M31.7,2.7
			c-1.8,0-3.2,1.4-3.2,3.3c0,1.9,1.4,3.4,3.2,3.4c1.8,0,3.2-1.4,3.2-3.3C34.9,4.1,33.5,2.7,31.7,2.7z"/>
	</g>
	<path d="M37.7,1.7h2.2c1.6,0,2.3,0.8,2.3,2.3c0,0.7-0.3,1.5-1,1.8c0.8,0.3,1.2,0.9,1.2,2.1c0,1.4-0.6,2.5-2.3,2.5h-2.4V1.7z
		 M39.2,5.3h0.5c0.6,0,1-0.4,1-1.1c0-0.8-0.3-1.2-1-1.2h-0.6V5.3z M39.2,9.2h0.6c0.8,0,1.1-0.5,1.1-1.3c0-0.9-0.3-1.3-1.2-1.3h-0.5
		V9.2z"/>
	<path d="M46.7,4.6V3.9c0-0.7-0.3-1-0.7-1c-0.6,0-0.8,0.3-0.8,1v4.4c0,0.6,0.2,1,0.8,1c0.5,0,0.7-0.3,0.7-0.9v-1h1.5v1
		c0,1.2-0.7,2.2-2.2,2.2c-1.6,0-2.3-1-2.3-2.2V3.8c0-1.2,0.7-2.2,2.3-2.2c1.5,0,2.2,1.1,2.2,2.4v0.6H46.7z"/>
	<path d="M49.7,10.4V1.7h1.4l1.8,5h0v-5h1.3v8.7H53L51.1,5h0v5.4H49.7z"/>
</g>
</svg>
